<svg height="200pt" preserveAspectRatio="xMidYMid meet" viewBox="0 0 200 200" width="200pt" xmlns="http://www.w3.org/2000/svg"><g transform="matrix(.1 0 0 -.1 0 200)"><path d="m504 1309c3-17 6-103 6-191 0-87 4-157 9-154 10 7 21-91 21-190 0-61 3-74 16-74 14 0 15 13 9 110-7 94-5 110 7 110s16-22 21-106c3-59 8-108 11-111 2-3 19-2 37 2l32 7-7 66c-6 53-13 72-38 100-50 58-58 89-58 226 0 69-4 127-9 130s-12 26-15 50c-6 38-20 56-43 56-3 0-3-14 1-31z"/><path d="m159 1237c-53-35-71-79-66-162 3-50 11-85 30-122 29-56 49-77 39-41-5 19-3 21 9 11 9-7 3 13-13 47-52 108-47 205 15 262 35 34 31 35-14 5z"/><path d="m1270 1062c0-4 16-31 36-60l36-54-36-54c-39-58-41-64-26-64 5 0 23 20 40 45s34 45 38 45 20-20 35-45c16-25 35-45 44-45 10 0 1 19-27 59l-42 59 36 54c20 29 36 56 36 60 0 19-17 4-43-37-16-25-32-47-37-50-4-3-22 18-40 45-29 45-50 63-50 42z"/><path d="m1480 951c0-74 4-121 10-121s10 39 10 97c0 55 4 93 9 88 4-6 24-49 42-97 19-49 39-88 46-88 6 0 28 43 49 95 20 52 40 95 43 95s5-43 3-95c-3-74 0-95 10-95s13 26 11 117c-2 156-16 161-68 26-21-54-41-101-45-106-4-4-25 39-47 95-25 65-47 104-57 106-14 3-16-11-16-117z"/><path d="m1760 950v-120h55c30 0 55 5 55 10 0 6-20 10-45 10h-45v110c0 67-4 110-10 110s-10-47-10-120z"/><path d="m1072 945c-1-78 2-115 8-105 7 12 12 12 22 2 6-6 31-12 53-12 56 0 85 30 85 88 0 68-61 110-118 81-15-7-30-15-34-17s-9 16-11 40-4-11-5-77zm129 26c36-36 37-73 4-106-33-34-77-33-104 1-29 37-26 70 8 105 37 37 55 37 92 0z"/><path d="m660 1047c0-4 12-31 27-60 15-28 33-77 39-107 9-40 13-47 13-24 1 45-25 124-54 164-14 18-25 31-25 27z"/><path d="m875 988c-15-14-28-38-31-59-12-71 73-126 136-87 10 7 22 10 25 6 11-10-17-56-42-67-35-16-50-14-74 10-11 11-24 18-27 14-4-4 4-15 17-26 33-27 86-25 116 6 24 23 25 30 24 127-1 57-3 95-6 86-5-22-12-22-37-3-29 22-71 18-101-7zm98-8c33-26 41-63 23-99-25-47-74-55-113-19-39 37-29 99 22 126 28 16 39 15 68-8z"/><path d="m360 873c0-10-3-35-6-55-4-24-3-38 4-38 12 0 21 100 10 107-5 2-8-4-8-14z"/></g></svg>